<svg width="142" height="64" viewBox="0 0 142 64" fill="none" xmlns="http://www.w3.org/2000/svg">
<path d="M19.9938 21.5H30.0063" stroke="#44E5E7" stroke-width="5" stroke-linecap="round"/>
<path d="M11.0005 28.5L34.9995 28.5" stroke="#44E5E7" stroke-width="5" stroke-linecap="round"/>
<path d="M35.5 35.5L2.5 35.5" stroke="#44E5E7" stroke-width="5" stroke-linecap="round"/>
<path d="M5.75 42.5H24.25" stroke="#44E5E7" stroke-width="5" stroke-linecap="round"/>
<path d="M63.8 39H60.38L54.66 30.34V39H51.24V24.96H54.66L60.38 33.66V24.96H63.8V39ZM70.8591 39.16C69.7657 39.16 68.7791 38.9267 67.8991 38.46C67.0324 37.9933 66.3457 37.3267 65.8391 36.46C65.3457 35.5933 65.0991 34.58 65.0991 33.42C65.0991 32.2733 65.3524 31.2667 65.8591 30.4C66.3657 29.52 67.0591 28.8467 67.9391 28.38C68.8191 27.9133 69.8057 27.68 70.8991 27.68C71.9924 27.68 72.9791 27.9133 73.8591 28.38C74.7391 28.8467 75.4324 29.52 75.9391 30.4C76.4457 31.2667 76.6991 32.2733 76.6991 33.42C76.6991 34.5667 76.4391 35.58 75.9191 36.46C75.4124 37.3267 74.7124 37.9933 73.8191 38.46C72.9391 38.9267 71.9524 39.16 70.8591 39.16ZM70.8591 36.2C71.5124 36.2 72.0657 35.96 72.5191 35.48C72.9857 35 73.2191 34.3133 73.2191 33.42C73.2191 32.5267 72.9924 31.84 72.5391 31.36C72.0991 30.88 71.5524 30.64 70.8991 30.64C70.2324 30.64 69.6791 30.88 69.2391 31.36C68.7991 31.8267 68.5791 32.5133 68.5791 33.42C68.5791 34.3133 68.7924 35 69.2191 35.48C69.6591 35.96 70.2057 36.2 70.8591 36.2ZM84.2334 36.1V39H82.4934C81.2534 39 80.2868 38.7 79.5934 38.1C78.9001 37.4867 78.5534 36.4933 78.5534 35.12V30.68H77.1934V27.84H78.5534V25.12H81.9734V27.84H84.2134V30.68H81.9734V35.16C81.9734 35.4933 82.0534 35.7333 82.2134 35.88C82.3734 36.0267 82.6401 36.1 83.0134 36.1H84.2334ZM96.1584 33.24C96.1584 33.56 96.1384 33.8933 96.0984 34.24H88.3584C88.4118 34.9333 88.6318 35.4667 89.0184 35.84C89.4184 36.2 89.9051 36.38 90.4784 36.38C91.3318 36.38 91.9251 36.02 92.2584 35.3H95.8984C95.7118 36.0333 95.3718 36.6933 94.8784 37.28C94.3984 37.8667 93.7918 38.3267 93.0584 38.66C92.3251 38.9933 91.5051 39.16 90.5984 39.16C89.5051 39.16 88.5318 38.9267 87.6784 38.46C86.8251 37.9933 86.1584 37.3267 85.6784 36.46C85.1984 35.5933 84.9584 34.58 84.9584 33.42C84.9584 32.26 85.1918 31.2467 85.6584 30.38C86.1384 29.5133 86.8051 28.8467 87.6584 28.38C88.5118 27.9133 89.4918 27.68 90.5984 27.68C91.6784 27.68 92.6384 27.9067 93.4784 28.36C94.3184 28.8133 94.9718 29.46 95.4384 30.3C95.9184 31.14 96.1584 32.12 96.1584 33.24ZM92.6584 32.34C92.6584 31.7533 92.4584 31.2867 92.0584 30.94C91.6584 30.5933 91.1584 30.42 90.5584 30.42C89.9851 30.42 89.4984 30.5867 89.0984 30.92C88.7118 31.2533 88.4718 31.7267 88.3784 32.34H92.6584ZM106.603 24.96V27.7H100.883V30.66H105.163V33.32H100.883V39H97.4627V24.96H106.603ZM111.32 24.2V39H107.9V24.2H111.32ZM118.379 39.16C117.285 39.16 116.299 38.9267 115.419 38.46C114.552 37.9933 113.865 37.3267 113.359 36.46C112.865 35.5933 112.619 34.58 112.619 33.42C112.619 32.2733 112.872 31.2667 113.379 30.4C113.885 29.52 114.579 28.8467 115.459 28.38C116.339 27.9133 117.325 27.68 118.419 27.68C119.512 27.68 120.499 27.9133 121.379 28.38C122.259 28.8467 122.952 29.52 123.459 30.4C123.965 31.2667 124.219 32.2733 124.219 33.42C124.219 34.5667 123.959 35.58 123.439 36.46C122.932 37.3267 122.232 37.9933 121.339 38.46C120.459 38.9267 119.472 39.16 118.379 39.16ZM118.379 36.2C119.032 36.2 119.585 35.96 120.039 35.48C120.505 35 120.739 34.3133 120.739 33.42C120.739 32.5267 120.512 31.84 120.059 31.36C119.619 30.88 119.072 30.64 118.419 30.64C117.752 30.64 117.199 30.88 116.759 31.36C116.319 31.8267 116.099 32.5133 116.099 33.42C116.099 34.3133 116.312 35 116.739 35.48C117.179 35.96 117.725 36.2 118.379 36.2ZM141.553 27.84L138.533 39H134.753L132.993 31.76L131.173 39H127.413L124.373 27.84H127.793L129.373 35.82L131.253 27.84H134.873L136.773 35.78L138.333 27.84H141.553Z" fill="#ECFCFD"/>
</svg>
